<?xml version="1.0" encoding="UTF-8"?>
<svg xmlns="http://www.w3.org/2000/svg" xmlns:xlink="http://www.w3.org/1999/xlink" viewBox="0 0 64 64" width="64px" height="64px">
<g id="surface11303628">
<path style=" stroke:none;fill-rule:nonzero;fill:rgb(50.980395%,50.980395%,50.980395%);fill-opacity:1;" d="M 32 3 C 17.214844 3 4.972656 14.144531 3.222656 28.46875 C 3.167969 28.617188 3.148438 28.769531 3.167969 28.921875 C 3.058594 29.933594 3 30.960938 3 32 C 3 47.980469 16.019531 61 32 61 C 47.980469 61 61 47.980469 61 32 C 61 16.019531 47.980469 3 32 3 Z M 32 5 C 46.898438 5 59 17.101562 59 32 C 59 33.015625 58.941406 34.015625 58.828125 35.003906 C 53.265625 33.449219 48.242188 32.878906 43.746094 33.035156 C 42.03125 33.09375 40.394531 33.261719 38.828125 33.511719 C 37.867188 31.03125 36.777344 28.472656 35.542969 25.886719 C 39.109375 24.550781 42.554688 22.808594 45.601562 20.515625 C 45.949219 20.261719 46.09375 19.8125 45.960938 19.402344 C 45.832031 18.992188 45.453125 18.714844 45.023438 18.707031 C 44.796875 18.707031 44.578125 18.78125 44.398438 18.917969 C 41.488281 21.109375 38.136719 22.773438 34.636719 24.042969 C 31.59375 18 27.746094 11.925781 22.914062 6.574219 C 25.757812 5.558594 28.8125 5 32 5 Z M 20.9375 7.375 C 25.777344 12.613281 29.640625 18.660156 32.699219 24.710938 C 21.1875 28.378906 8.886719 28.074219 5.3125 27.882812 C 6.71875 18.714844 12.75 11.066406 20.9375 7.375 Z M 49.503906 14.445312 C 49.207031 14.449219 48.929688 14.578125 48.742188 14.808594 C 48.269531 15.359375 47.792969 15.886719 47.292969 16.382812 C 46.902344 16.769531 46.902344 17.402344 47.289062 17.796875 C 47.679688 18.1875 48.3125 18.191406 48.707031 17.800781 C 49.253906 17.253906 49.765625 16.683594 50.257812 16.109375 C 50.519531 15.8125 50.582031 15.390625 50.421875 15.03125 C 50.257812 14.671875 49.898438 14.441406 49.503906 14.445312 Z M 33.613281 26.566406 C 34.804688 29.054688 35.851562 31.519531 36.789062 33.917969 C 31.976562 34.964844 27.910156 36.824219 24.59375 39.007812 C 18.125 43.265625 14.4375 48.578125 12.925781 51.09375 C 8.03125 46.207031 5 39.453125 5 32 C 5 31.285156 5.035156 30.582031 5.089844 29.882812 C 8.652344 30.101562 21.457031 30.578125 33.613281 26.570312 Z M 44.410156 34.996094 C 44.980469 34.984375 45.558594 34.988281 46.144531 35.003906 C 49.886719 35.09375 54.011719 35.71875 58.527344 37 C 57.027344 45.007812 51.980469 51.773438 45.085938 55.609375 C 44.566406 52.625 43.011719 44.863281 39.527344 35.402344 C 41.078125 35.167969 42.703125 35.027344 44.410156 34.996094 Z M 37.488281 35.765625 C 41.292969 46.003906 42.847656 54.324219 43.214844 56.554688 C 39.796875 58.121094 36.003906 59 32 59 C 25.289062 59 19.152344 56.539062 14.425781 52.476562 C 15.683594 50.316406 19.277344 44.898438 25.695312 40.679688 C 28.898438 38.570312 32.800781 36.746094 37.492188 35.765625 Z M 11.335938 38.519531 C 11.210938 38.519531 11.089844 38.539062 10.972656 38.585938 L 9.09375 39.269531 C 8.757812 39.390625 8.511719 39.683594 8.449219 40.035156 C 8.386719 40.386719 8.519531 40.746094 8.792969 40.972656 C 9.066406 41.203125 9.441406 41.269531 9.777344 41.148438 L 11.65625 40.464844 C 12.117188 40.300781 12.390625 39.835938 12.3125 39.355469 C 12.234375 38.878906 11.820312 38.523438 11.335938 38.519531 Z M 13.53125 42.972656 C 13.339844 42.976562 13.152344 43.035156 12.996094 43.144531 L 11.316406 44.234375 C 11.015625 44.425781 10.84375 44.765625 10.863281 45.125 C 10.882812 45.480469 11.089844 45.800781 11.40625 45.960938 C 11.726562 46.125 12.105469 46.105469 12.40625 45.910156 L 14.082031 44.820312 C 14.460938 44.582031 14.636719 44.117188 14.507812 43.6875 C 14.378906 43.257812 13.976562 42.964844 13.53125 42.972656 Z M 20.691406 49.847656 C 20.328125 49.835938 19.984375 50.027344 19.800781 50.34375 L 18.769531 52.054688 C 18.570312 52.363281 18.550781 52.757812 18.722656 53.082031 C 18.898438 53.402344 19.234375 53.605469 19.601562 53.609375 C 19.96875 53.609375 20.308594 53.410156 20.484375 53.085938 L 21.515625 51.371094 C 21.703125 51.066406 21.714844 50.683594 21.542969 50.371094 C 21.375 50.054688 21.050781 49.855469 20.691406 49.84375 Z M 25.195312 51.910156 C 24.757812 51.910156 24.371094 52.195312 24.242188 52.613281 L 23.621094 54.515625 C 23.511719 54.855469 23.589844 55.226562 23.828125 55.496094 C 24.066406 55.761719 24.429688 55.878906 24.78125 55.804688 C 25.128906 55.730469 25.414062 55.476562 25.523438 55.132812 L 26.144531 53.230469 C 26.246094 52.925781 26.195312 52.589844 26.007812 52.328125 C 25.820312 52.066406 25.519531 51.910156 25.195312 51.910156 Z M 30.046875 52.902344 C 29.53125 52.917969 29.113281 53.316406 29.074219 53.828125 L 28.902344 55.820312 C 28.863281 56.179688 29.023438 56.53125 29.316406 56.742188 C 29.609375 56.949219 29.996094 56.984375 30.320312 56.828125 C 30.648438 56.675781 30.867188 56.355469 30.890625 55.996094 L 31.066406 54.003906 C 31.097656 53.71875 31.003906 53.433594 30.804688 53.222656 C 30.609375 53.011719 30.332031 52.894531 30.042969 52.902344 Z M 30.046875 52.902344 "/>
</g>
</svg>
