<?xml version="1.0" encoding="UTF-8"?>
<svg xmlns="http://www.w3.org/2000/svg" xmlns:xlink="http://www.w3.org/1999/xlink" viewBox="0 0 50 50" width="50px" height="50px">
<g id="surface11215871">
<path style=" stroke:none;fill-rule:nonzero;fill:rgb(50.980395%,50.980395%,50.980395%);fill-opacity:1;" d="M 9 4 C 6.25 4 4 6.25 4 9 L 4 41 C 4 43.75 6.25 46 9 46 L 41 46 C 43.75 46 46 43.75 46 41 L 46 9 C 46 6.25 43.75 4 41 4 Z M 9 6 L 41 6 C 42.667969 6 44 7.332031 44 9 L 44 41 C 44 42.667969 42.667969 44 41 44 L 9 44 C 7.332031 44 6 42.667969 6 41 L 6 9 C 6 7.332031 7.332031 6 9 6 Z M 14 11.011719 C 12.90625 11.011719 11.917969 11.339844 11.191406 11.953125 C 10.460938 12.566406 10.011719 13.484375 10.011719 14.464844 C 10.011719 16.332031 11.632812 17.789062 13.691406 17.933594 C 13.691406 17.933594 13.695312 17.933594 13.695312 17.933594 C 13.792969 17.96875 13.894531 17.988281 14 17.988281 C 16.273438 17.988281 17.988281 16.394531 17.988281 14.464844 C 17.988281 14.449219 17.988281 14.429688 17.988281 14.414062 C 17.882812 12.515625 16.191406 11.011719 14 11.011719 Z M 14 12.988281 C 15.390625 12.988281 15.941406 13.609375 16.003906 14.492188 C 15.988281 15.347656 15.460938 16.011719 14 16.011719 C 12.613281 16.011719 11.988281 15.300781 11.988281 14.46875 C 11.988281 14.050781 12.140625 13.734375 12.460938 13.464844 C 12.78125 13.195312 13.296875 12.988281 14 12.988281 Z M 11 19 C 10.449219 19 10 19.449219 10 20 L 10 39 C 10 39.550781 10.449219 40 11 40 L 17 40 C 17.550781 40 18 39.550781 18 39 L 18 20 C 18 19.449219 17.550781 19 17 19 Z M 20 19 C 19.449219 19 19 19.449219 19 20 L 19 39 C 19 39.550781 19.449219 40 20 40 L 26 40 C 26.550781 40 27 39.550781 27 39 L 27 29 C 27 28.171875 27.226562 27.34375 27.625 26.804688 C 28.023438 26.265625 28.527344 25.941406 29.480469 25.957031 C 30.46875 25.972656 30.988281 26.3125 31.382812 26.84375 C 31.78125 27.371094 32 28.167969 32 29 L 32 39 C 32 39.550781 32.449219 40 33 40 L 39 40 C 39.550781 40 40 39.550781 40 39 L 40 28.261719 C 40 25.300781 39.121094 22.953125 37.617188 21.367188 C 36.117188 19.78125 34.023438 19 31.8125 19 C 29.710938 19 28.109375 19.703125 27 20.425781 L 27 20 C 27 19.449219 26.550781 19 26 19 Z M 12 21 L 16 21 L 16 38 L 12 38 Z M 21 21 L 25 21 L 25 22.558594 C 25 22.992188 25.273438 23.371094 25.683594 23.507812 C 26.089844 23.644531 26.539062 23.503906 26.796875 23.160156 C 26.796875 23.160156 28.371094 21 31.8125 21 C 33.566406 21 35.070312 21.582031 36.167969 22.742188 C 37.265625 23.902344 38 25.6875 38 28.261719 L 38 38 L 34 38 L 34 29 C 34 27.832031 33.71875 26.628906 32.988281 25.648438 C 32.261719 24.664062 31.03125 23.984375 29.515625 23.957031 C 27.996094 23.929688 26.746094 24.628906 26.015625 25.621094 C 25.285156 26.609375 25 27.828125 25 29 L 25 38 L 21 38 Z M 21 21 "/>
</g>
</svg>
