<svg width="22" height="20" viewBox="0 0 22 20" fill="none" xmlns="http://www.w3.org/2000/svg">
<path d="M10.182 0.85958C10.4818 -0.0606967 11.7837 -0.0606959 12.0836 0.859581L13.8347 6.23398C13.9688 6.64561 14.3525 6.92418 14.7855 6.92418H20.4462C21.4156 6.92418 21.8179 8.16521 21.0329 8.73398L16.4581 12.0486C16.1066 12.3033 15.9595 12.7555 16.094 13.1682L17.8426 18.5349C18.1426 19.4557 17.0893 20.2227 16.305 19.6544L11.7195 16.3321C11.3694 16.0784 10.8961 16.0784 10.546 16.3321L5.9605 19.6544C5.17624 20.2227 4.12295 19.4557 4.42298 18.5348L6.17155 13.1682C6.306 12.7555 6.15892 12.3033 5.80746 12.0486L1.23259 8.73398C0.447582 8.16521 0.849913 6.92418 1.81931 6.92418H7.48006C7.91299 6.92418 8.29675 6.64561 8.43087 6.23398L10.182 0.85958Z" fill="#E5E5E5"/>
</svg>
