<?xml version="1.0" standalone="no"?>
<!DOCTYPE svg PUBLIC "-//W3C//DTD SVG 20010904//EN"
 "http://www.w3.org/TR/2001/REC-SVG-20010904/DTD/svg10.dtd">
<svg version="1.0" xmlns="http://www.w3.org/2000/svg"
 width="260.000000pt" height="260.000000pt" viewBox="0 0 260.000000 260.000000"
 preserveAspectRatio="xMidYMid meet">
<metadata>
Created by potrace 1.14, written by Peter Selinger 2001-2017
</metadata>
<g transform="translate(0.000000,260.000000) scale(0.100000,-0.100000)"
fill="#000000" stroke="none">
<path d="M100 1315 l0 -1196 329 3 c296 3 331 5 348 21 11 9 24 17 30 17 5 0
22 11 37 25 15 14 29 25 31 25 8 0 65 62 65 71 0 5 11 11 24 15 13 3 27 13 30
22 3 10 19 37 36 62 16 25 33 52 36 60 4 8 12 22 19 30 15 20 71 165 80 210 4
19 11 40 15 45 7 9 16 47 51 225 15 76 22 495 11 620 -11 119 -18 152 -58 303
-13 48 -24 92 -24 97 0 5 -11 33 -24 62 -12 29 -26 61 -30 71 -14 41 -131 227
-142 227 -6 0 -35 25 -65 55 -29 30 -59 55 -65 55 -7 0 -14 7 -18 15 -3 8 -13
15 -22 15 -10 0 -26 8 -36 17 -17 15 -54 18 -339 21 l-319 4 0 -1197z m615
725 c3 -5 14 -10 25 -10 10 0 20 -7 24 -15 3 -8 12 -15 20 -15 15 0 86 -89 86
-108 0 -6 4 -12 8 -14 13 -5 59 -100 67 -138 4 -19 14 -45 22 -57 26 -40 55
-285 49 -413 -7 -156 -30 -297 -55 -345 -12 -21 -21 -45 -21 -53 0 -12 -44
-106 -74 -160 -19 -34 -98 -112 -113 -112 -3 0 -15 -8 -26 -17 -16 -15 -45
-18 -193 -21 l-174 -4 0 746 0 746 174 0 c106 0 177 -4 181 -10z"/>
<path d="M1445 2498 c-3 -7 -4 -544 -3 -1193 l3 -1180 130 0 130 0 2 709 c1
390 5 711 8 714 2 3 12 -12 20 -34 9 -21 20 -48 25 -59 5 -11 16 -46 25 -77 9
-32 20 -60 25 -63 4 -3 11 -17 14 -32 7 -28 48 -139 66 -178 5 -11 16 -39 25
-62 37 -105 47 -130 60 -160 8 -17 15 -36 15 -42 0 -6 9 -28 20 -48 11 -21 20
-44 20 -51 0 -8 6 -28 14 -45 33 -72 64 -154 71 -187 4 -19 13 -44 21 -55 7
-11 22 -49 34 -85 12 -36 32 -87 45 -115 13 -27 26 -67 30 -88 9 -45 20 -49
135 -45 l85 3 3 1170 c1 644 0 1180 -3 1193 -5 21 -9 22 -130 22 l-125 0 0
-714 c0 -411 -4 -717 -9 -720 -8 -6 -81 161 -81 185 0 6 -11 37 -24 68 -13 31
-34 83 -46 116 -13 33 -31 79 -41 102 -11 23 -19 48 -19 55 -1 7 -9 31 -20 53
-11 22 -19 44 -20 48 0 5 -7 23 -15 40 -13 30 -21 51 -61 162 -8 22 -19 49
-24 60 -5 11 -21 52 -35 90 -51 137 -112 299 -134 355 -10 25 -21 57 -25 73
l-6 27 -101 0 c-70 0 -101 -4 -104 -12z"/>
</g>
</svg>
